<svg width="17" height="17" viewBox="0 0 17 17" fill="none" xmlns="http://www.w3.org/2000/svg">
<g clip-path="url(#clip0_6477_142)">
<path d="M8.4375 12.6562C10.7675 12.6562 12.6562 10.7675 12.6562 8.4375C12.6562 6.10755 10.7675 4.21875 8.4375 4.21875C6.10755 4.21875 4.21875 6.10755 4.21875 8.4375C4.21875 10.7675 6.10755 12.6562 8.4375 12.6562Z" fill="white"/>
<path d="M8.4375 2.53095C7.97113 2.53095 7.59375 2.15314 7.59375 1.6872V0.84375C7.59375 0.377809 7.97113 0 8.4375 0C8.90387 0 9.28125 0.377809 9.28125 0.84375V1.6872C9.28125 2.15314 8.90387 2.53095 8.4375 2.53095Z" fill="white"/>
<path d="M13.2109 4.50806C12.9951 4.50806 12.7792 4.42566 12.6144 4.26086C12.2848 3.93137 12.2848 3.39714 12.6144 3.06765L13.2109 2.47119C13.5405 2.1418 14.0745 2.1417 14.4041 2.47129C14.7336 2.80078 14.7336 3.33501 14.4041 3.6645L13.8075 4.26096C13.6427 4.42566 13.4268 4.50806 13.2109 4.50806Z" fill="white"/>
<path d="M16.0312 9.28125H15.1875C14.7211 9.28125 14.3438 8.90344 14.3438 8.4375C14.3438 7.97156 14.7211 7.59375 15.1875 7.59375H16.0312C16.4976 7.59375 16.875 7.97156 16.875 8.4375C16.875 8.90344 16.4976 9.28125 16.0312 9.28125Z" fill="white"/>
<path d="M13.8075 14.6508C13.5916 14.6508 13.3757 14.5685 13.2109 14.4037L12.6144 13.8073C12.2848 13.4778 12.2848 12.9436 12.6144 12.6141C12.944 12.2845 13.4779 12.2844 13.8075 12.614L14.4041 13.2104C14.7336 13.5399 14.7336 14.0741 14.4041 14.4036C14.2393 14.5684 14.0234 14.6508 13.8075 14.6508Z" fill="white"/>
<path d="M8.4375 16.8749C7.97113 16.8749 7.59375 16.4971 7.59375 16.0312V15.1877C7.59375 14.7218 7.97113 14.344 8.4375 14.344C8.90387 14.344 9.28125 14.7218 9.28125 15.1877V16.0312C9.28125 16.4971 8.90387 16.8749 8.4375 16.8749Z" fill="white"/>
<path d="M3.06787 14.6509C2.85199 14.6509 2.63611 14.5685 2.47131 14.4037C2.14172 14.0742 2.14172 13.54 2.47131 13.2105L3.06787 12.614C3.39746 12.2846 3.9314 12.2845 4.26099 12.6141C4.59058 12.9436 4.59058 13.4778 4.26099 13.8073L3.66443 14.4038C3.49963 14.5685 3.28375 14.6509 3.06787 14.6509Z" fill="white"/>
<path d="M1.6875 9.28125H0.84375C0.37738 9.28125 0 8.90344 0 8.4375C0 7.97156 0.37738 7.59375 0.84375 7.59375H1.6875C2.15387 7.59375 2.53125 7.97156 2.53125 8.4375C2.53125 8.90344 2.15387 9.28125 1.6875 9.28125Z" fill="white"/>
<path d="M3.66443 4.50813C3.44855 4.50813 3.23267 4.42583 3.06787 4.26104L2.47131 3.66458C2.14172 3.33509 2.14172 2.80085 2.47131 2.47136C2.8009 2.14177 3.33484 2.14167 3.66443 2.47126L4.26099 3.06772C4.59058 3.39721 4.59058 3.93145 4.26099 4.26094C4.09619 4.42573 3.88031 4.50813 3.66443 4.50813Z" fill="white"/>
</g>
<defs>
<clipPath id="clip0_6477_142">
<rect width="16.875" height="16.875" fill="white"/>
</clipPath>
</defs>
</svg>
