<svg width="17" height="17" viewBox="0 0 17 17" fill="none" xmlns="http://www.w3.org/2000/svg">
<path d="M8.4401 2.63755C8.58 2.63755 8.71417 2.58198 8.8131 2.48305C8.91202 2.38413 8.9676 2.24996 8.9676 2.11005V1.58255C8.9676 1.44265 8.91202 1.30848 8.8131 1.20955C8.71417 1.11063 8.58 1.05505 8.4401 1.05505C8.3002 1.05505 8.16602 1.11063 8.0671 1.20955C7.96817 1.30848 7.9126 1.44265 7.9126 1.58255V2.11005C7.9126 2.24996 7.96817 2.38413 8.0671 2.48305C8.16602 2.58198 8.3002 2.63755 8.4401 2.63755Z" fill="white"/>
<path d="M8.4401 14.2426C8.3002 14.2426 8.16602 14.2981 8.0671 14.3971C7.96817 14.496 7.9126 14.6302 7.9126 14.7701V15.2976C7.9126 15.4375 7.96817 15.5716 8.0671 15.6706C8.16602 15.7695 8.3002 15.8251 8.4401 15.8251C8.58 15.8251 8.71417 15.7695 8.8131 15.6706C8.91202 15.5716 8.9676 15.4375 8.9676 15.2976V14.7701C8.9676 14.6302 8.91202 14.496 8.8131 14.3971C8.71417 14.2981 8.58 14.2426 8.4401 14.2426Z" fill="white"/>
<path d="M15.2977 7.91248H14.7702C14.6303 7.91248 14.4961 7.96805 14.3972 8.06698C14.2983 8.1659 14.2427 8.30007 14.2427 8.43998C14.2427 8.57988 14.2983 8.71405 14.3972 8.81297C14.4961 8.9119 14.6303 8.96748 14.7702 8.96748H15.2977C15.4376 8.96748 15.5717 8.9119 15.6707 8.81297C15.7696 8.71405 15.8252 8.57988 15.8252 8.43998C15.8252 8.30007 15.7696 8.1659 15.6707 8.06698C15.5717 7.96805 15.4376 7.91248 15.2977 7.91248Z" fill="white"/>
<path d="M2.11018 7.91248H1.58268C1.44277 7.91248 1.3086 7.96805 1.20968 8.06698C1.11075 8.1659 1.05518 8.30007 1.05518 8.43998C1.05518 8.57988 1.11075 8.71405 1.20968 8.81297C1.3086 8.9119 1.44277 8.96748 1.58268 8.96748H2.11018C2.25008 8.96748 2.38425 8.9119 2.48317 8.81297C2.5821 8.71405 2.63768 8.57988 2.63768 8.43998C2.63768 8.30007 2.5821 8.1659 2.48317 8.06698C2.38425 7.96805 2.25008 7.91248 2.11018 7.91248Z" fill="white"/>
<path d="M12.9158 3.21782L12.5429 3.59076C12.4925 3.63942 12.4523 3.69763 12.4247 3.76199C12.397 3.82634 12.3825 3.89556 12.3819 3.9656C12.3812 4.03564 12.3946 4.1051 12.4211 4.16993C12.4476 4.23476 12.4868 4.29366 12.5363 4.34319C12.5859 4.39271 12.6448 4.43188 12.7096 4.45841C12.7744 4.48493 12.8439 4.49828 12.9139 4.49767C12.984 4.49706 13.0532 4.48251 13.1175 4.45486C13.1819 4.42722 13.2401 4.38703 13.2888 4.33665L13.6622 3.96423C13.7112 3.91522 13.7501 3.85704 13.7766 3.793C13.8032 3.72897 13.8168 3.66034 13.8168 3.59103C13.8168 3.52171 13.8032 3.45308 13.7766 3.38905C13.7501 3.32501 13.7112 3.26683 13.6622 3.21782C13.6132 3.16881 13.555 3.12993 13.491 3.10341C13.427 3.07688 13.3583 3.06323 13.289 3.06323C13.2197 3.06323 13.1511 3.07688 13.087 3.10341C13.023 3.12993 12.9648 3.16881 12.9158 3.21782Z" fill="white"/>
<path d="M3.59105 12.543L3.21758 12.9159C3.16857 12.9649 3.12969 13.0231 3.10316 13.0871C3.07664 13.1512 3.06299 13.2198 3.06299 13.2891C3.06299 13.3584 3.07664 13.427 3.10316 13.4911C3.12969 13.5551 3.16857 13.6133 3.21758 13.6623C3.31656 13.7613 3.4508 13.8169 3.59078 13.8169C3.66009 13.8169 3.72872 13.8032 3.79276 13.7767C3.85679 13.7502 3.91498 13.7113 3.96399 13.6623L4.33693 13.2894C4.38594 13.2404 4.42482 13.1822 4.45136 13.1182C4.4779 13.0542 4.49157 12.9856 4.49159 12.9163C4.49162 12.8471 4.478 12.7784 4.4515 12.7144C4.42501 12.6504 4.38617 12.5922 4.33719 12.5432C4.28822 12.4942 4.23007 12.4553 4.16607 12.4288C4.10206 12.4022 4.03346 12.3886 3.96417 12.3885C3.82424 12.3885 3.69003 12.444 3.59105 12.543Z" fill="white"/>
<path d="M13.2885 12.543C13.189 12.4469 13.0558 12.3937 12.9174 12.3949C12.7791 12.3961 12.6468 12.4516 12.549 12.5494C12.4512 12.6472 12.3958 12.7795 12.3946 12.9178C12.3933 13.0561 12.4465 13.1894 12.5426 13.2889L12.9155 13.6623C13.0145 13.7613 13.1488 13.8169 13.2888 13.8169C13.4287 13.8169 13.563 13.7613 13.662 13.6623C13.7609 13.5633 13.8165 13.4291 13.8165 13.2891C13.8165 13.1491 13.7609 13.0149 13.662 12.9159L13.2885 12.543Z" fill="white"/>
<path d="M3.59105 4.33717C3.69053 4.43326 3.82378 4.48643 3.96209 4.48523C4.1004 4.48403 4.2327 4.42855 4.3305 4.33075C4.42831 4.23295 4.48378 4.10064 4.48499 3.96233C4.48619 3.82402 4.43302 3.69078 4.33693 3.59129L3.96399 3.21782C3.86501 3.11884 3.73076 3.06323 3.59078 3.06323C3.4508 3.06323 3.31656 3.11884 3.21758 3.21782C3.11859 3.3168 3.06299 3.45105 3.06299 3.59103C3.06299 3.73101 3.11859 3.86525 3.21758 3.96423L3.59105 4.33717Z" fill="white"/>
<path d="M13.0296 9.22224C12.9616 9.15508 12.8766 9.10767 12.7836 9.08509C12.6907 9.06251 12.5934 9.06561 12.5021 9.09406C12.1482 9.20339 11.7796 9.25818 11.4092 9.25653C10.4053 9.25555 9.4429 8.85639 8.73304 8.14663C8.02318 7.43687 7.62388 6.47449 7.62276 5.47066C7.62146 5.10032 7.67661 4.73194 7.78629 4.37821C7.81492 4.28683 7.81814 4.18937 7.79559 4.0963C7.77304 4.00322 7.72558 3.91804 7.6583 3.84989C7.59102 3.78174 7.50645 3.73319 7.41367 3.70946C7.32089 3.68572 7.22341 3.68768 7.13166 3.71514C6.3309 3.95729 5.60658 4.40285 5.02933 5.00835C4.45208 5.61385 4.04162 6.35863 3.83798 7.17003C3.63434 7.98144 3.64447 8.83177 3.8674 9.63809C4.09032 10.4444 4.51842 11.1792 5.10994 11.7708C5.70145 12.3623 6.4362 12.7905 7.2425 13.0135C8.0488 13.2365 8.89913 13.2467 9.71056 13.0431C10.522 12.8396 11.2668 12.4292 11.8723 11.852C12.4779 11.2748 12.9235 10.5505 13.1657 9.74974C13.1932 9.65776 13.195 9.56002 13.1711 9.46707C13.1471 9.37411 13.0982 9.28946 13.0296 9.22224Z" fill="white"/>
</svg>
